<?xml version="1.0" standalone="no"?>
<!DOCTYPE svg PUBLIC "-//W3C//DTD SVG 20010904//EN"
 "http://www.w3.org/TR/2001/REC-SVG-20010904/DTD/svg10.dtd">
<svg version="1.0" xmlns="http://www.w3.org/2000/svg"
 width="758.000000pt" height="1280.000000pt" viewBox="0 0 758.000000 1280.000000"
 preserveAspectRatio="xMidYMid meet">
<g transform="translate(0.000000,1280.000000) scale(0.100000,-0.100000)"
fill="#000000" stroke="none">
<path d="M4540 12020 c-582 -35 -1183 -205 -1805 -510 -947 -465 -1452 -973
-1582 -1590 -25 -118 -25 -402 0 -517 30 -142 111 -354 135 -353 4 1 53 72
109 158 548 840 1194 1384 1893 1595 375 113 791 137 1181 66 624 -112 976
-494 1050 -1138 15 -134 7 -496 -14 -607 -101 -531 -335 -971 -782 -1468 -99
-110 -914 -846 -1770 -1597 -282 -248 -456 -419 -596 -584 -333 -395 -522
-767 -596 -1175 -26 -145 -24 -429 5 -534 68 -248 228 -413 482 -494 223 -73
565 -79 810 -15 91 23 271 100 283 120 4 6 -7 50 -23 98 -120 355 -128 733
-25 1122 77 291 251 632 468 916 164 216 346 407 637 668 360 322 1122 1001
1460 1300 324 287 400 362 562 554 383 454 617 957 694 1490 21 146 24 509 5
660 -62 494 -238 880 -541 1185 -417 420 -985 633 -1740 654 -91 2 -226 0
-300 -4z"/>
<path d="M2745 2444 c-122 -12 -314 -39 -500 -70 -254 -42 -734 -132 -746
-140 -5 -3 4 -31 20 -62 104 -206 120 -396 66 -795 -37 -279 -48 -405 -41
-492 14 -167 52 -270 134 -357 117 -125 284 -167 527 -134 219 30 1081 178
1089 187 2 2 20 94 39 204 142 786 159 1017 96 1246 -56 204 -191 337 -391
388 -75 19 -222 31 -293 25z"/>
</g>
</svg>
